# xmcd
#
# Track frame offsets:
# 150
# 10311
# 23787
# 36722
# 48219
# 61787
# 71914
# 87137
# 105530
# 120117
#
# Disc length: 1783 seconds
#
# Revision: 0
# Processed by: cddbd v1.5.1PL0 Copyright (c) Steve Scherf et al.
# Submitted via: Audion 3.0.2 (http://www.panic.com/audion/)
#
DISCID=7906f50a
DTITLE=Hank Williams III - This Ain't Country
DYEAR=1900
DGENRE=
TTITLE0=Hellbilly Joker
TTITLE1=Hang On
TTITLE2=Life of Sin
TTITLE3=Mary Fucking Jane
TTITLE4=Now He's Dead
TTITLE5=Tennessee Driver
TTITLE6=Runnin' and Gunnin'
TTITLE7=Ten Feet Down
TTITLE8=Pistol Packin' Motherfucker
TTITLE9=Drink It, Drug It
EXTD=
EXTT0=
EXTT1=
EXTT2=
EXTT3=
EXTT4=
EXTT5=
EXTT6=
EXTT7=
EXTT8=
EXTT9=
PLAYORDER=
